<?xml version="1.0" encoding="UTF-8"?>
<svg xmlns="http://www.w3.org/2000/svg" xmlns:xlink="http://www.w3.org/1999/xlink" width="50px" height="50px" viewBox="0 0 50 50" version="1.1">
<g id="surface1">
<path style="stroke:none;fill-rule:nonzero;fill:gray;fill-opacity:1;stroke:#808080;" d="M 30.667969 8.144531 L 19.292969 8.144531 C 16.765625 8.148438 14.714844 10.195312 14.710938 12.726562 L 14.710938 37.273438 C 14.714844 39.804688 16.765625 41.851562 19.292969 41.855469 L 30.667969 41.855469 C 33.195312 41.851562 35.246094 39.804688 35.25 37.273438 L 35.25 12.726562 C 35.246094 10.195312 33.195312 8.148438 30.667969 8.144531 Z M 33.285156 37.273438 C 33.285156 38.71875 32.113281 39.890625 30.667969 39.890625 L 19.292969 39.890625 C 17.847656 39.890625 16.675781 38.71875 16.675781 37.273438 L 16.675781 12.726562 C 16.675781 11.28125 17.847656 10.109375 19.292969 10.109375 L 30.667969 10.109375 C 32.113281 10.109375 33.285156 11.28125 33.285156 12.726562 Z M 33.285156 37.273438 "/>
<path style="stroke:none;fill-rule:nonzero;fill:gray;fill-opacity:1;stroke:#808080;" d="M 18.175781 28.683594 L 31.8125 28.683594 L 31.8125 12.097656 L 18.175781 12.097656 Z M 20.140625 14.0625 L 29.851562 14.0625 L 29.851562 26.71875 L 20.140625 26.71875 Z M 20.140625 14.0625 "/>
<path style="stroke:none;fill-rule:nonzero;fill:gray;fill-opacity:1;stroke:#808080;" d="M 18.285156 29.828125 L 21.339844 29.828125 L 21.339844 31.792969 L 18.285156 31.792969 Z M 18.285156 29.828125 "/>
<path style="stroke:none;fill-rule:nonzero;fill:gray;fill-opacity:1;stroke:#808080;" d="M 28.757812 29.828125 L 31.8125 29.828125 L 31.8125 31.792969 L 28.757812 31.792969 Z M 28.757812 29.828125 "/>
<path style="stroke:none;fill-rule:nonzero;fill:gray;fill-opacity:1;stroke:#808080;" d="M 23.453125 29.828125 L 26.507812 29.828125 L 26.507812 31.792969 L 23.453125 31.792969 Z M 23.453125 29.828125 "/>
<path style="stroke:none;fill-rule:nonzero;fill:gray;fill-opacity:1;stroke:#808080;" d="M 18.285156 32.882812 L 21.339844 32.882812 L 21.339844 34.847656 L 18.285156 34.847656 Z M 18.285156 32.882812 "/>
<path style="stroke:none;fill-rule:nonzero;fill:gray;fill-opacity:1;stroke:#808080;" d="M 28.757812 32.882812 L 31.8125 32.882812 L 31.8125 34.847656 L 28.757812 34.847656 Z M 28.757812 32.882812 "/>
<path style="stroke:none;fill-rule:nonzero;fill:gray;fill-opacity:1;stroke:#808080;" d="M 23.453125 32.882812 L 26.507812 32.882812 L 26.507812 34.847656 L 23.453125 34.847656 Z M 23.453125 32.882812 "/>
<path style="stroke:none;fill-rule:nonzero;fill:gray;fill-opacity:1;stroke:#808080;" d="M 18.285156 35.9375 L 21.339844 35.9375 L 21.339844 37.902344 L 18.285156 37.902344 Z M 18.285156 35.9375 "/>
<path style="stroke:none;fill-rule:nonzero;fill:gray;fill-opacity:1;stroke:#808080;" d="M 28.757812 35.9375 L 31.8125 35.9375 L 31.8125 37.902344 L 28.757812 37.902344 Z M 28.757812 35.9375 "/>
<path style="stroke:none;fill-rule:nonzero;fill:gray;fill-opacity:1;stroke:#808080;" d="M 23.453125 35.9375 L 26.507812 35.9375 L 26.507812 37.902344 L 23.453125 37.902344 Z M 23.453125 35.9375 "/>
</g>
</svg>
